<?xml version="1.0" standalone="no"?>
<!DOCTYPE svg PUBLIC "-//W3C//DTD SVG 20010904//EN"
 "http://www.w3.org/TR/2001/REC-SVG-20010904/DTD/svg10.dtd">
<svg version="1.0" xmlns="http://www.w3.org/2000/svg"
 width="300.000000pt" height="300.000000pt" viewBox="0 0 300.000000 300.000000"
 preserveAspectRatio="xMidYMid meet">
<metadata>
Favicon generated using potrace 1.14, written by Peter Selinger 2001-2017
</metadata>
<g transform="translate(0.000000,300.000000) scale(0.100000,-0.100000)"
fill="#000000" stroke="none">
<path d="M0 1500 l0 -1500 1500 0 1500 0 0 508 0 508 -211 68 c-115 38 -211
66 -213 65 -1 -2 -12 -31 -25 -64 -58 -147 -146 -278 -268 -396 -509 -495
-1338 -400 -1730 198 -217 329 -242 752 -66 1111 173 353 533 599 923 628 l90
7 0 183 0 184 -750 0 -750 0 0 -1500z"/>
<path d="M1370 2243 c-54 -9 -158 -46 -221 -79 -189 -99 -330 -281 -380 -490
-28 -116 -23 -294 11 -394 88 -261 289 -450 546 -511 116 -28 294 -23 394 11
198 67 352 195 444 369 64 123 64 117 -7 140 -34 11 -196 63 -359 116 l-298
96 0 374 0 375 -52 -1 c-29 -1 -64 -4 -78 -6z"/>
</g>
</svg>
